<svg id="leaf" xmlns="http://www.w3.org/2000/svg" width="82" height="42" viewBox="0 0 82 42"><title>leaf-bg</title><path d="M26.3,21.7A20.1,20.1,0,0,0,1,41H3A18,18,0,0,1,8.3,28.3L9.8,27v9.8L5.5,41H8.4L24.8,24.6a18,18,0,0,1-5.2,15.1L18.2,41h3A20,20,0,0,0,26.3,21.7Zm-14.5,13V25.6a18.2,18.2,0,0,1,11.6-2.4Z" fill="#467366"/><path d="M66.3,1.7A20,20,0,0,0,41.7,26.3,20,20,0,0,0,66.3,1.7ZM51.8,5.6A18,18,0,0,1,63.4,3.2L51.8,14.8ZM48.3,8.3,49.8,7v9.7l-6.6,6.6A18,18,0,0,1,48.3,8.3ZM59.7,19.7a18,18,0,0,1-15,5.1L64.8,4.6A18,18,0,0,1,59.7,19.7Z" fill="#467366"/><path d="M18.2,1A18,18,0,0,1,4.6,4.8L8.4,1H5.6L3.2,3.4A18.1,18.1,0,0,1,3.1,1h-2a20.1,20.1,0,0,0,.7,5.3A20,20,0,0,0,21.1,1.1H18.2Z" fill="#467366"/></svg>